HIERARCHY
ROOT Hips
{
  OFFSET 1.26276 72.9883 1.34753
  CHANNELS 6 Xposition Yposition Zposition Zrotation Xrotation Yrotation
  JOINT Spine
  {
    OFFSET -0.000355721 21.3001 -0.016921
    CHANNELS 3 Zrotation Xrotation Yrotation
    JOINT LeftArm
    {
      OFFSET 13.5181 21.3012 0
      CHANNELS 3 Zrotation Xrotation Yrotation
      JOINT LeftForeArm
      {
        OFFSET 24.5783 0 0
        CHANNELS 3 Zrotation Xrotation Yrotation
        JOINT LeftHand
        {
          OFFSET 24.5783 0 0
          CHANNELS 3 Zrotation Xrotation Yrotation
          End Site
          {
            OFFSET 7.32568 1.52588e-05 0.0169305
          }
        }
      }
    }
    JOINT Head
    {
      OFFSET 0 27.4458 -0.00489235
      CHANNELS 3 Zrotation Xrotation Yrotation
      End Site
      {
        OFFSET 0 0 0
      }
    }
    JOINT RightArm
    {
      OFFSET -13.5174 21.3012 0
      CHANNELS 3 Zrotation Xrotation Yrotation
      JOINT RightForeArm
      {
        OFFSET -24.5783 0 0
        CHANNELS 3 Zrotation Xrotation Yrotation
        JOINT RightHand
        {
          OFFSET -24.5783 0 0
          CHANNELS 3 Zrotation Xrotation Yrotation
          End Site
          {
            OFFSET -7.32568 1.52588e-05 0.0169305
          }
        }
      }
    }
  }
  JOINT RightUpLeg
  {
    OFFSET -8.44614 -9.41038 0.835684
    CHANNELS 3 Zrotation Xrotation Yrotation
    JOINT RightLeg
    {
      OFFSET 0 -40.9639 0
      CHANNELS 3 Zrotation Xrotation Yrotation
      JOINT RightFoot
      {
        OFFSET 0 -40.9639 0
        CHANNELS 3 Zrotation Xrotation Yrotation
        End Site
        {
          OFFSET 0.50614 -9.67405 14.6709
        }
      }
    }
  }
  JOINT LeftUpLeg
  {
    OFFSET 8.44614 -9.41038 0.835684
    CHANNELS 3 Zrotation Xrotation Yrotation
    JOINT LeftLeg
    {
      OFFSET 0 -40.9639 0
      CHANNELS 3 Zrotation Xrotation Yrotation
      JOINT LeftFoot
      {
        OFFSET 0 -40.9639 0
        CHANNELS 3 Zrotation Xrotation Yrotation
        End Site
        {
          OFFSET -0.50614 -9.67405 14.6709
        }
      }
    }
  }
}
MOTION
Frames:	28
Frame Time:	0.0333333
1.26276 72.9883 1.34753 -7.16391 16.941 -3.0076 -7.37996 8.64191 15.4341 -48.4036 -28.5017 29.9433 -9.63144e-06 1.2412e-05 -10.7212 19.9183 7.84776 -23.6916 15.6044 -2.15702 -3.3026 5.43452 -18.1826 94.0738 3.26697e-06 5.01067e-06 94.709 -10.6714 12.9651 23.2452 8.49688 6.009 -13.8666 12.9629 44.3455 -19.9255 7.59414 -54.8817 -9.23483 8.55813 -80.9515 7.1761 1.80024 53.7829 8.5548 19.5387 -18.3507 24.8381 
-0.894031 71.3371 2.23671 -4.43426 18.9161 -1.61443 -7.53551 7.77885 13.7328 -50.6926 -29.077 30.1568 -9.97556e-06 1.24722e-05 -9.13662 18.4147 4.93003 -15.5393 12.9512 -0.706572 -5.06895 4.2382 -18.5966 94.4787 2.26258e-06 -1.20951e-05 78.5703 -10.9917 11.3409 26.9284 7.63622 3.23357 -13.9751 13.9797 47.9399 -19.9302 9.12662 -51.4241 -10.1314 -2.82508 -85.3966 -2.56568 1.98881 57.6426 7.90095 18.3337 -19.6335 25.3547 
-3.65728 70.4468 4.74167 -2.00044 22.2568 1.17786 -7.76803 6.73031 11.7439 -53.7524 -28.5364 29.2326 -9.88201e-06 1.24568e-05 -9.56663 16.422 2.48598 -8.07589 10.0391 1.26278 -7.90267 1.58913 -19.2038 91.9697 -2.52852e-06 -2.6393e-05 64.3786 -13.4656 8.76762 30.357 7.6608 1.06327 -14.3107 14.0011 46.9642 -16.9248 8.4641 -43.8875 -15.2739 -81.3877 -88.5606 -78.3478 2.20844 61.364 5.37121 17.5213 -22.1264 26.0223 
-6.69703 70.1753 8.34771 0.00523959 26.5662 3.42052 -8.27581 5.64658 9.69214 -56.7937 -27.6659 28.1594 -9.31501e-06 1.23478e-05 -12.1856 14.3273 1.13349 -0.998803 7.13055 3.75616 -10.5591 -0.0250584 -19.6739 87.0216 -7.82547e-06 -3.53773e-05 54.5761 -18.3337 6.45721 33.488 7.8874 -0.81083 -14.5962 13.2414 42.8187 -13.563 7.32826 -34.9497 -18.9639 -163.465 -85.9888 -157.431 2.48513 64.8682 2.0545 16.8198 -25.5067 26.813 
-9.55439 70.249 12.2574 1.26693 30.2551 3.83485 -8.78422 4.71216 7.81424 -59.3925 -27.0838 27.7266 -8.38218e-06 1.21089e-05 -16.5542 12.7893 1.28415 5.42543 3.95491 6.70239 -11.9363 1.3866 -19.7922 80.3997 -1.07403e-05 -3.91536e-05 50.0968 -25.3612 4.80424 35.075 8.20441 -2.10545 -14.7134 12.7621 39.2606 -13.7417 7.48153 -28.582 -18.2889 168.71 -83.3657 176.871 2.83682 68.2848 -1.14487 16.131 -29.4475 27.5443 
-12.1595 70.561 16.3787 1.96858 32.4181 3.10451 -8.76525 3.97452 6.23199 -61.9529 -26.4783 26.8597 -7.35571e-06 1.17551e-05 -21.4801 11.5895 2.95801 10.5491 0.31068 9.88104 -12.0939 4.89814 -19.8441 71.7813 -1.15623e-05 -4.01161e-05 48.9086 -32.7328 3.27973 34.2226 7.80958 -4.87342 -15.0374 13.5623 41.8329 -16.491 6.86615 -23.7927 -16.4443 144.224 -81.2689 153.701 3.33802 71.6941 -4.34481 15.5836 -33.9008 28.2199 
-14.7166 71.2357 20.6752 2.98265 33.1367 2.02806 -7.98242 3.36126 4.96208 -64.6169 -25.2229 23.0838 -6.51781e-06 1.13898e-05 -25.6268 10.1247 5.58522 14.0082 -2.97015 12.6396 -11.7356 7.76772 -20.3932 60.2322 -1.21591e-05 -4.07903e-05 48.0633 -38.2901 1.52872 31.8572 4.16098 -12.5585 -16.6053 17.1466 55.2479 -22.3111 1.46936 -22.6169 -17.3966 120.284 -79.7118 130.903 3.90635 74.1685 -7.36255 14.8889 -38.4097 28.6491 
-17.1439 72.352 24.7964 3.82432 33.1831 0.826955 -6.51433 2.80083 4.0308 -66.274 -23.0742 14.9679 -5.98276e-06 1.11173e-05 -28.3505 8.43782 8.36179 15.9463 -4.36709 14.0421 -11.2523 8.72352 -20.9295 45.9418 -1.37352e-05 -4.24792e-05 45.8947 -41.381 -0.0374461 30.3456 -4.02868 -23.883 -20.4034 27.6011 72.5748 -34.7284 -8.36185 -27.2094 -20.1248 97.9365 -77.4033 109.207 4.24197 75.0153 -9.79319 13.7983 -42.2971 28.6062 
-19.3466 73.6531 28.5314 3.34709 33.2109 -0.549674 -4.61799 2.31877 3.39907 -65.4737 -20.5933 3.22437 -5.6938e-06 1.09565e-05 -29.8504 7.41471 10.877 16.8549 -3.03783 13.7705 -10.737 9.43791 -20.0699 30.5434 -1.69915e-05 -4.55994e-05 41.6601 -42.5111 -0.800598 31.6212 -15.7012 -36.343 -26.6087 60.8357 83.9633 -68.8037 -14.4966 -34.4808 -20.0002 84.3694 -73.4211 94.7674 4.2655 74.8296 -11.7606 12.5312 -45.3464 28.6964 
-21.6324 74.6458 32.1056 1.93596 32.8552 -1.53435 -2.60863 2.03111 2.75449 -62.4016 -18.6711 -10.8094 -5.53723e-06 1.08651e-05 -30.6726 8.19552 13.6835 16.8541 0.676526 12.7618 -10.6501 12.633 -17.7674 15.6925 -2.28248e-05 -5.01857e-05 34.6901 -42.212 -0.58535 34.9964 -30.4206 -47.6735 -37.0144 118.921 86.4534 -127.059 -16.9743 -39.5376 -19.2506 77.2295 -68.762 85.4104 4.22829 74.6814 -13.314 10.6228 -48.1684 28.4548 
-24.3558 74.9101 35.6329 0.397718 31.0192 -0.773277 -0.868482 1.99662 1.66593 -59.1378 -16.9488 -26.9182 -5.38385e-06 1.07727e-05 -31.4849 10.9288 17.4379 15.0942 5.7201 12.1646 -11.8209 18.7651 -16.2302 0.949114 -3.12036e-05 -5.50501e-05 25.5856 -40.3412 0.688761 35.8384 -49.3316 -53.3901 -53.6687 85.2207 87.4665 -93.5591 -22.3565 -42.387 -23.3464 71.3173 -64.0568 77.3476 4.46368 74.9974 -13.725 5.5833 -51.2389 23.8121 
-27.781 74.6131 39.3703 -0.82442 27.3066 2.06015 0.336613 2.09342 -0.0509667 -57.4086 -13.8216 -45.2209 -4.97387e-06 1.05106e-05 -33.692 14.3337 20.3615 10.4308 10.3259 12.2959 -14.1366 25.2786 -18.1016 -15.4184 -3.99401e-05 -5.84359e-05 16.7813 -36.0526 2.952 29.3714 -65.8315 -51.389 -69.6202 22.2656 81.919 -29.8399 -22.4957 -43.5784 -25.8729 64.5871 -58.927 68.5833 4.67651 75.1243 -12.9967 -3.42584 -53.4492 13.6086 
-32.2531 74.3886 43.8956 -0.870533 22.1979 4.98872 1.11595 2.08945 -2.08282 -56.8215 -8.71728 -63.8453 -3.97174e-06 9.7685e-06 -39.3502 17.1632 18.6798 2.94091 12.1009 13.6792 -15.7205 28.3281 -23.6915 -33.6761 -7.63783e-05 -6.00901e-05 10.0957 -29.276 4.66724 17.0408 -72.7842 -46.5373 -77.1774 10.3275 69.7907 -12.683 -12.7228 -36.8073 -25.2529 57.2536 -51.7551 58.3043 3.93737 73.58 -12.5962 -13.1252 -53.9916 3.72936 
-37.9002 74.7675 49.5052 0.953008 16.3481 5.2593 1.5002 1.87752 -4.15671 -55.8665 -3.665 -79.4192 -2.50389e-06 8.35195e-06 -48.6124 18.8634 12.4916 -4.96719 9.54889 17.8696 -14.1122 24.9926 -29.8274 -52.4768 0.0335018 -6.07657e-05 5.38617 -22.0463 3.99226 4.84425 -71.989 -44.9229 -78.4834 4.90178 57.1048 -2.03599 -14.3652 -33.7817 -29.0785 50.8037 -39.9322 50.0965 3.06987 67.4859 -13.2789 -24.0997 -52.3358 -5.0244 
-44.555 75.8124 56.0492 3.76574 9.51756 1.67975 1.50923 1.58589 -6.11695 -53.8697 -2.01101 -90.1424 -1.26455e-06 6.68784e-06 -58.0339 19.3887 8.2062 -10.7547 3.3766 24.9511 -8.07025 15.3672 -32.3523 -69.0976 0.000308875 -6.09958e-05 2.05813 -16.2068 1.39769 -3.78634 -64.4081 -46.9469 -74.0845 -0.537051 48.3102 4.22381 -19.2649 -33.1161 -28.9868 44.1159 -21.4037 43.2658 1.7268 54.0175 -12.8165 -32.0374 -47.3739 -8.80505 
-51.5049 76.7371 62.7334 6.05249 1.22567 -4.67926 1.52127 1.39275 -7.56242 -51.3623 -5.126 -96.8016 -6.50198e-07 5.58407e-06 -63.7658 18.8112 10.6338 -15.1988 -3.93305 31.4097 0.778198 2.59529 -29.9051 -80.7145 -0.000847434 -6.10179e-05 1.36084 -12.3417 -1.39882 -9.65306 -51.5453 -47.693 -64.4977 -6.84317 45.5724 2.83916 -18.2797 -28.0309 -21.0159 36.8231 2.25503 30.5125 -2.64097 34.6304 -7.54259 -23.6948 -43.4083 4.6635 
-57.9262 76.7836 68.4362 8.09007 -6.80833 -11.2718 1.67893 1.30122 -8.36095 -49.031 -10.7834 -100.191 -4.87251e-07 5.24047e-06 -65.4907 18.6854 16.6073 -21.9408 -9.76653 33.5765 8.15186 -9.28198 -25.534 -85.132 -0.000844944 -6.09079e-05 3.70104 -11.1563 -4.01965 -14.342 -44.2445 -45.8705 -58.6518 -12.9192 50.7164 1.24795 -14.9683 -25.7012 -13.5928 31.8235 21.6377 14.3136 -8.92019 23.8497 -1.67217 -4.9582 -28.9012 25.3387 
-63.6532 76.9191 72.9423 11.1652 -12.3225 -17.0313 1.6972 1.25898 -8.43521 -47.0644 -15.4997 -99.2453 -5.12307e-07 5.29508e-06 -65.2182 21.1681 19.7728 -30.8249 -14.0462 31.6592 12.3602 -17.3159 -23.6947 -82.3958 -0.000840555 -6.04642e-05 7.84309 -13.5455 -9.18295 -19.0655 -45.0935 -44.2807 -58.8396 -18.1241 59.1918 7.7862 -15.9676 -33.867 -12.0829 25.1567 32.1626 8.38596 -13.2702 24.6611 2.62479 0.97245 -8.02467 30.1837 
-68.3035 77.6943 76.6088 14.051 -16.2988 -22.7756 1.76715 1.33726 -7.79253 -45.3331 -17.8626 -92.2566 -6.56877e-07 5.5976e-06 -63.6974 24.584 18.636 -37.4121 -18.404 29.141 15.482 -20.4625 -26.2213 -73.7398 -0.000835804 -5.96172e-05 12.3745 -19.5993 -18.5688 -25.4316 -46.9132 -42.033 -59.6604 -21.4385 64.5456 17.7723 -20.0649 -41.335 -13.3637 18.1286 32.9925 13.1604 -16.6988 36.8664 8.79561 0.89745 5.87147 28.1851 
-72.1014 79.2402 79.7663 15.8119 -20.9582 -28.1858 2.1499 1.61005 -6.78522 -43.1571 -18.6112 -79.2883 -1.09484e-06 6.40788e-06 -59.5189 27.0105 15.6705 -41.0265 -23.4697 28.7536 19.3866 -19.017 -30.5041 -60.6406 -0.000830462 -5.81887e-05 17.5671 -27.6971 -27.7456 -33.5159 -47.0213 -37.9237 -57.7772 -23.2521 66.3426 24.8255 -22.0107 -46.5275 -12.1794 11.326 28.447 20.1924 -21.0291 56.4533 14.932 -0.250666 12.2634 28.9971 
-75.1695 81.0518 82.8226 16.9017 -26.5696 -33.9191 2.61854 1.99924 -5.59042 -39.9572 -18.2694 -62.7976 -2.07097e-06 7.83335e-06 -51.6768 28.2061 12.9807 -44.4316 -28.6102 29.7259 24.2991 -13.1246 -32.4471 -42.9213 -0.000823719 -5.56061e-05 24.349 -33.9625 -32.5029 -39.2076 -47.6739 -33.3361 -54.7635 -24.0948 66.0035 26.8308 -19.1727 -51.1042 -6.08085 8.1472 20.6579 25.9265 -55.1978 77.4068 47.1706 -1.68825 10.1945 28.5513 
-77.7172 82.8855 86.1633 17.5004 -32.3766 -40.9222 2.76188 2.35534 -4.2336 -36.6944 -16.9901 -45.8749 -3.69811e-06 9.53757e-06 -40.9742 28.4993 11.23 -48.2202 -33.0552 29.6287 29.55 -5.32277 -31.1314 -19.9498 -0.000816996 -5.20432e-05 31.4962 -35.5734 -34.1325 -38.7182 -49.656 -29.9242 -53.0919 -23.3388 64.125 21.7171 -11.8238 -55.2568 3.2346 9.83878 10.1854 32.5067 -148.303 75.199 143.34 -4.38461 0.98497 18.0454 
-79.8608 84.8278 89.4282 18.7159 -38.0567 -48.6777 2.41847 2.61103 -2.76015 -35.4262 -16.3138 -29.9566 -5.86915e-06 1.10553e-05 -28.9376 28.4045 10.0299 -49.4938 -37.3233 26.799 34.9542 3.28101 -27.4235 9.67569 -0.00081348 -4.97182e-05 35.4539 -31.0237 -32.985 -31.4844 -54.1261 -28.1582 -54.4844 -21.4784 61.1059 16.44 -4.68992 -57.4086 11.7955 17.7444 -2.10616 39.435 -169.723 64.7621 173.523 -6.78744 -9.6198 3.17482 
-81.8748 87.1235 92.2031 23.1771 -44.4328 -55.9394 1.35135 2.78138 -1.28741 -37.1304 -18.3136 -15.0462 -8.27333e-06 1.2076e-05 -17.07 28.2667 8.93372 -45.2579 -42.8204 20.7585 40.5053 10.6291 -20.1822 44.4615 -0.000814546 -5.04604e-05 34.2344 -19.4068 -24.7765 -19.0558 -62.3736 -28.8479 -59.8532 -18.2495 56.5806 17.7149 -3.89451 -56.8862 14.5523 31.7982 -12.6592 44.6026 -173.574 60.4272 177.307 -6.40356 -12.7917 -4.17552 
-84.2389 89.4272 94.4501 31.5009 -51.9283 -60.5141 -0.0581031 2.89265 -0.115226 -40.7288 -22.6767 -1.59966 -1.0403e-05 1.25335e-05 -7.17785 28.2173 7.63513 -36.9386 -49.5331 12.3999 45.0151 11.7295 -10.1579 77.438 -0.000817899 -5.25857e-05 30.5073 -4.89015 -6.65863 -6.62667 -71.9219 -32.1928 -67.8633 -12.9701 49.4243 15.2742 -6.81148 -54.4718 10.4368 45.8586 -16.6919 44.0975 -166.371 70.9228 159.303 -2.45194 -6.42919 -4.06669 
-87.2359 91.1307 96.7122 42.0116 -58.1325 -59.7669 -0.853692 2.94657 0.727792 -45.1753 -26.4482 9.53255 -1.16695e-05 1.26286e-05 -1.41483 27.5277 7.06309 -30.0261 -55.5445 4.53143 46.665 5.23084 0.43829 102.239 -0.000819015 -5.32276e-05 29.2986 7.60955 16.4405 2.82977 -79.4397 -36.1092 -73.3964 -8.07574 40.9874 6.91588 -11.1923 -51.1305 -0.1055 52.106 -15.3777 37.9642 -30.8921 79.4416 18.4299 -0.638537 0.893001 1.23998 
-91.072 91.9104 98.6151 52.8611 -61.0813 -53.6907 -1.41674 2.88823 1.54582 -50.3951 -27.6353 17.9427 -1.19815e-05 1.26325e-05 0.00013744 25.3172 9.98552 -27.4625 -58.8576 0.246386 45.042 -4.65996 8.25342 117.255 -0.000815315 -5.09746e-05 33.3667 14.6377 36.7983 10.1508 -84.5843 -37.6328 -73.6848 -5.36997 35.921 3.55009 -17.3745 -48.0565 -14.098 53.338 -12.4689 32.7516 -4.71703 46.172 -3.05376 -6.32762 3.44512 11.3866 
-94.6728 91.903 99.7167 62.4532 -61.5662 -45.8914 -2.0667 2.67376 2.40629 -55.7173 -27.0621 24.1807 -1.19723e-05 1.26325e-05 -0.0413784 22.5859 19.3652 -25.9042 -58.9256 -0.0770867 41.7101 -14.0986 13.3756 126.116 -0.000808264 -4.55559e-05 41.7215 12.6459 49.2557 16.7582 -89.2777 -37.0737 -72.5277 -4.57037 35.4678 6.68967 -22.1964 -46.0687 -25.1215 51.7491 -6.99664 31.5943 0.743183 10.5957 -2.8043 -10.3505 8.6259 18.8522 
